<?xml version="1.0" encoding="UTF-8"?>
<svg id="Layer_2" data-name="Layer 2" xmlns="http://www.w3.org/2000/svg" viewBox="0 0 264.03 216.54">
  <defs>
    <style>
      .cls-1 {
        fill: #08a9fb;
      }

      .cls-1, .cls-2, .cls-3, .cls-4, .cls-5, .cls-6, .cls-7, .cls-8, .cls-9, .cls-10, .cls-11, .cls-12, .cls-13, .cls-14, .cls-15, .cls-16, .cls-17, .cls-18, .cls-19 {
        stroke-width: 0px;
      }

      .cls-2 {
        fill: #07a9fb;
      }

      .cls-3 {
        fill: #81d4fd;
      }

      .cls-4 {
        fill: #01a6fb;
      }

      .cls-5 {
        fill: #05a8fb;
      }

      .cls-6 {
        fill: #f8fdff;
      }

      .cls-7 {
        fill: #00a6fb;
      }

      .cls-8 {
        fill: #cfedfe;
      }

      .cls-9 {
        fill: #feffff;
      }

      .cls-10 {
        fill: #f8fcff;
      }

      .cls-11 {
        fill: #f7fcff;
      }

      .cls-12 {
        fill: #96d7fd;
      }

      .cls-13 {
        fill: #6ec9fc;
      }

      .cls-14 {
        fill: #8ed4fc;
      }

      .cls-15 {
        fill: #fbfeff;
      }

      .cls-16 {
        fill: #40befc;
      }

      .cls-17 {
        fill: #fff;
      }

      .cls-18 {
        fill: #c7e9fd;
      }

      .cls-19 {
        fill: #f9fdff;
      }
    </style>
  </defs>
  <g id="Layer_1-2" data-name="Layer 1">
    <g>
      <path class="cls-7" d="M245.53,94.32c.64-.41,1.17-.95,1.73-1.46,3.46-3.13,6.91-6.27,10.37-9.4,1.35-1.23,2.71-2.45,4.07-3.68.14-.12.3-.23.45-.33.13-.09.25-.06.32.08.09.16.2.33.24.5.14.61.3,1.23.38,1.85.16,1.25.47,2.48.53,3.74.01.25.03.51.07.75.24,1.31.26,2.63.3,3.95.07,2.14.05,4.29-.03,6.43-.04.94-.07,1.89-.25,2.82-.04.19-.05.37-.07.56-.37,4.03-1.23,7.96-2.39,11.83-1.14,3.81-2.63,7.48-4.49,11-1.65,3.13-3.56,6.09-5.82,8.82-2.06,2.49-4.35,4.73-7.02,6.57-.15.11-.29.24-.43.36-.12.1-.14.39-.03.51.25.28.5.57.75.85.67.75,1.35,1.5,2.01,2.26,4.26,4.85,7.91,10.13,11.06,15.75.74,1.32,1.46,2.65,2.2,3.97.19.34.3.69.3,1.08.01,1.64.05,3.28-.27,4.9-.31,3.03-1.09,5.94-2.05,8.81-1.04,3.11-2.39,6.09-3.99,8.96-3.58,6.4-8.23,11.9-13.82,16.63-.38.32-.78.63-1.18.94-.11.09-.24.06-.36.01-.12-.05-.18-.14-.19-.28-.12-1.7-.44-3.37-.52-5.08-.31-1.61-.28-3.26-.58-4.88-.05-.25-.05-.5-.07-.75-.02-.25-.02-.51-.06-.75-.25-1.68-.32-3.39-.58-5.07-.06-.37-.09-.75-.12-1.13-.07-.88-.11-1.76-.29-2.63-.06-.31-.07-.63-.1-.94-.06-.82-.1-1.64-.27-2.44-.04-.18-.06-.37-.07-.56-.05-1.45-.34-2.88-.46-4.32-.02-.26-.14-.48-.31-.67-.54-.62-1.08-1.23-1.6-1.86-1.8-2.13-3.36-4.41-4.67-6.86-.24-.44-.48-.88-.73-1.32-.14-.25-.57-.26-.82-.03-.16.14-.22.34-.14.5.13.28.26.57.4.85,1.61,3.16,2.77,6.48,3.61,9.92.36,1.47.59,2.96.8,4.46.12.87.14,1.76.17,2.64.03.94.02,1.89.01,2.84,0,.7-.15,1.36-.36,2.04-.91,2.9-2.21,5.63-3.79,8.21-1.52,2.48-3.28,4.78-5.27,6.9-5.16,5.52-11.25,9.68-18.26,12.5-1.58.63-3.2,1.15-4.83,1.64-.42.13-.86.18-1.3.23-.1.01-.21-.13-.21-.26-.01-.51.27-.97.29-1.47.67-2.75,1.33-5.51,2-8.26.83-3.43,1.66-6.85,2.49-10.28.59-2.45,1.19-4.89,1.78-7.34.04-.18.08-.37.12-.55.07-.38.07-.76-.09-1.11-.58-1.26-1.08-2.55-1.57-3.85-.06-.17-.43-.35-.64-.31-.25.04-.5.06-.75.12-5.13,1.3-10.26,2.58-15.37,3.92-5.42,1.42-10.85,2.82-16.28,4.16-3.67.91-7.35,1.76-11.05,2.53-2.22.46-4.44.92-6.67,1.31-1.98.35-3.96.73-5.97.91-1.54.34-3.13.32-4.69.6-.43.08-.88.07-1.32.1-.94.06-1.89.1-2.83.22-.56.07-1.13.08-1.7.1-2.14.07-4.29.07-6.43,0-.75-.02-1.51-.1-2.26-.15-.5-.04-1-.09-1.51-.12-1.13-.07-2.27-.11-3.39-.32-.18-.04-.38-.04-.56-.06-.82-.06-1.63-.17-2.44-.29-1.06-.16-2.12-.29-3.18-.47-1.06-.18-2.12-.3-3.17-.5-3.9-.73-7.78-1.52-11.65-2.42-6.97-1.63-10.82-2.61-19.79-4.94-5.42-1.41-10.86-2.78-16.28-4.17-.61-.16-1.22-.31-1.84-.44-.24-.05-.5-.07-.75-.06-.11,0-.26.07-.33.16-.11.15-.19.33-.26.5-.47,1.24-.97,2.46-1.51,3.67-.11.24-.13.48-.07.74.77,3.18,1.53,6.37,2.3,9.55.69,2.88,1.39,5.75,2.09,8.63.73,3,1.46,5.99,2.18,8.99.07.31.16.62.09.93-.02.1-.15.18-.22.26-.5-.05-.99-.17-1.48-.31-5.93-1.73-11.36-4.46-16.29-8.18-2.12-1.59-4.11-3.33-5.94-5.25-2.84-2.98-5.29-6.25-7.2-9.91-1.08-2.07-1.97-4.22-2.63-6.47-.14-.49-.24-.98-.24-1.48,0-1.01,0-2.02.02-3.02.01-.5.08-1,.13-1.51.03-.31.1-.62.13-.94.26-2.77.96-5.45,1.8-8.1.67-2.11,1.53-4.13,2.5-6.12.14-.28.29-.56.42-.84.18-.38.2-.5-.26-.74-.28-.14-.5-.09-.65.15-.19.33-.38.65-.56.98-.4.71-.79,1.44-1.21,2.14-1.37,2.27-2.96,4.39-4.75,6.35-.72.79-.85.93-.95,2.18-.08,1.01-.14,2.01-.33,3.01-.07.37-.07.75-.1,1.13-.05.69-.1,1.38-.23,2.07-.06.31-.09.62-.11.94-.07.94-.13,1.89-.31,2.82-.07.37-.08.75-.11,1.13-.05.69-.1,1.38-.23,2.07-.07.37-.1.75-.13,1.13-.06.82-.11,1.63-.27,2.44-.07.37-.09.75-.12,1.13-.06.75-.11,1.51-.25,2.25-.07.37-.09.75-.12,1.13-.07.88-.13,1.76-.29,2.63-.1.56-.11,1.13-.15,1.69-.06.75-.14,1.5-.37,2.23-.04.13-.16.2-.29.13-.22-.11-.45-.23-.63-.39-1.89-1.58-3.72-3.22-5.42-5-2.88-3.02-5.46-6.27-7.66-9.82-2.68-4.3-4.77-8.87-6.15-13.75-.46-1.64-.73-3.01-1.06-4.6-.34-1.68-.36-3.38-.55-5.07-.04-.37-.01-.76-.02-1.13,0-.64.15-1.24.46-1.81,1.69-3.1,3.43-6.17,5.34-9.14,2.42-3.77,5.14-7.32,8.1-10.69.83-.94,1.66-1.89,2.49-2.84.1-.12.05-.4-.09-.51-.25-.19-.5-.38-.76-.56-.82-.58-1.6-1.23-2.37-1.88-1.83-1.56-3.44-3.34-4.92-5.22-2.43-3.08-4.45-6.42-6.14-9.95-2-4.16-3.5-8.49-4.56-12.98-.38-1.6-.64-3.21-.98-4.81-.13-1.51-.48-2.99-.52-4.5-.01-.5-.06-1.01-.11-1.51-.27-2.45-.21-4.91-.1-7.37.05-1.2.15-2.39.29-3.58.28-2.25.56-4.5,1.14-6.7.04-.15.32-.23.46-.12.15.11.31.22.44.35,2.06,1.86,4.12,3.71,6.18,5.57,3.27,2.96,6.54,5.93,9.81,8.89.14.13.29.24.44.36.44.15.59,0,.47-.45-.19-.67-.38-1.33-.57-2-.45-1.57-.81-3.17-1.08-4.79-.44-2.63-.5-5.26-.43-7.91.02-.76.07-1.51.11-2.27.03-.57.09-1.13.19-1.69.22-1.18.31-2.37.3-3.57-.01-1.39.02-2.77.13-4.16.08-1.13.1-2.27.14-3.4.04-.88.07-1.76.22-2.64.03-.19.05-.37.06-.56.08-1.26.23-2.51.41-3.76.2-1.5.45-2.99.71-4.48.33-1.92.76-3.83,1.23-5.72,1.34-5.34,3.21-10.47,5.71-15.37,2.25-4.4,4.98-8.47,8.25-12.18,3.7-4.19,7.94-7.73,12.72-10.62,4.72-2.85,9.76-4.96,15.07-6.42,2.31-.64,4.63-1.19,7-1.55.92-.25,1.87-.26,2.8-.43.93-.18,1.87-.23,2.82-.31.19-.01.38-.02.57-.05,1.5-.25,3.01-.26,4.52-.3,2.39-.06,4.79-.06,7.18,0,1.45.04,2.9.06,4.34.28.62.09,1.25.12,1.88.18.05,0,.1.06.13.1.08.12.07.24,0,.36-.11.15-.22.31-.34.45-2.6,3.09-5.19,6.17-7.79,9.26-.73.87-1.45,1.74-2.19,2.61-.27.31-.34.67-.26,1.06.1.49.24.98.33,1.47.25,1.3.54,2.59.7,3.9.21,1.75.48,3.49.52,5.26.04,2.02.07,4.03-.02,6.05-.04,1.01-.1,2.01-.27,3.01-.17.99-.17,2.01-.44,2.99-.43,2.81-1.17,5.54-2.1,8.22-1.81,5.21-4.37,10.04-7.57,14.53-2.05,2.88-4.33,5.58-6.8,8.1-2.43,2.48-4.99,4.82-7.72,6.96-.2.16-.4.31-.59.47-.8.64-.91.8-.32,1.69,1.08,1.63,2.04,3.33,2.88,5.1,1.54,3.26,2.67,6.66,3.32,10.21.16.87.34,1.73.4,2.61.02.31.1.62.14.93.06.48.29.82.75,1,.29.11.58.24.88.35,3.05,1.19,6.1,2.38,9.15,3.57.88.34,1.76.69,2.64,1.03.3.11.62.11.92-.02.52-.23,1.04-.46,1.55-.7,6.12-2.83,12.29-5.53,18.56-8,.23-.09.46-.21.67-.34.08-.06.13-.21.15-.32.02-.2-.1-.36-.18-.53-.52-1.08-.98-2.18-1.4-3.3-.67-1.78-1.05-3.63-1.25-5.51-.06-.56-.05-1.13.05-1.7.06-.37.12-.75.19-1.12.15-.82.5-1.56,1-2.22.73-.96,1.75-1.42,2.93-1.52.5-.04,1,.03,1.5.15,1.31.32,2.47.94,3.53,1.74,1.01.76,1.93,1.61,2.76,2.57,1.29,1.48,2.41,3.08,3.39,4.77.32.54.62,1.1.93,1.64.11.19.44.31.66.24.42-.14.84-.27,1.26-.4,2.28-.74,4.55-1.49,6.84-2.18,1.63-.49,3.28-.89,4.94-1.25.31-.06.62-.11.93-.15q2.91-.33,5.84-.04c1.07.1,2.11.35,3.15.6,2.21.52,4.37,1.2,6.52,1.91,1.5.49,2.99.98,4.49,1.46.46.15.65.07.91-.39.34-.6.68-1.21,1.03-1.8.67-1.14,1.42-2.23,2.24-3.28.85-1.1,1.8-2.11,2.85-3.02.86-.75,1.79-1.38,2.82-1.88.63-.31,1.29-.52,1.97-.64,1.66-.31,3.29.29,4.27,1.79.53.81.83,1.71.92,2.66.12,1.38.08,2.76-.2,4.14-.39,1.93-1.03,3.76-1.81,5.55-.23.52-.47,1.03-.7,1.55-.08.18-.02.4.14.48.22.12.44.25.67.34,4.57,1.8,9.09,3.72,13.58,5.73,2.01.9,4.01,1.83,6.02,2.74.23.1.46.2.7.28.18.05.37.07.56.01.18-.06.36-.1.54-.17,4.04-1.59,8.09-3.18,12.13-4.77.17-.07.35-.14.51-.24.15-.1.32-.22.34-.43.13-.93.26-1.87.4-2.8.8-5.37,2.82-10.42,5-14.17.57-.98,1.18-1.94,1.77-2.9.08-.13.03-.42-.09-.52-.19-.16-.38-.33-.57-.49-1.24-.98-2.45-1.97-3.65-3.01-2.72-2.36-5.26-4.89-7.62-7.61-2.11-2.43-4.03-5-5.76-7.72-2.85-4.5-5.07-9.28-6.54-14.4-.76-2.65-1.01-4.07-1.46-6.63-.31-1.74-.33-3.51-.58-5.26-.07-2.27-.15-4.54.13-6.8.03-.25.05-.5.07-.75.15-2.58.59-5.13,1.15-7.65.11-.49.22-.98.31-1.48.02-.11-.02-.26-.08-.36-.17-.26-.35-.52-.56-.76-.89-1.07-1.78-2.13-2.67-3.19-2.32-2.75-4.64-5.49-6.95-8.24-.16-.19-.3-.41-.41-.63-.04-.08.02-.26.1-.32.09-.07.24-.08.36-.09,1.51-.08,3.01-.33,4.52-.37,2.39-.06,4.79-.11,7.18-.07.88.01,1.76.04,2.65.06.94.03,1.89.06,2.83.21.43.07.88.09,1.32.12.82.06,1.63.14,2.44.28.99.17,1.99.28,2.99.45,3.37.56,7,1.43,10.79,2.74,4.6,1.6,8.96,3.7,13.03,6.39,4.72,3.12,8.84,6.88,12.4,11.27,3.19,3.94,5.8,8.24,7.92,12.84,2.04,4.42,3.57,9.01,4.72,13.73.55,2.27.96,4.56,1.39,6.85.11,1.38.47,2.73.52,4.12.27,1.56.28,3.14.44,4.7.23,2.26.25,4.53.28,6.8,0,.63,0,1.26,0,1.89,0,.63.04,1.26.18,1.88.1.43.13.87.18,1.31.04.38.05.76.11,1.13.37,2.38.27,4.78.19,7.17-.29,2.95-.75,5.87-1.64,8.71-.11.36-.22.72-.25,1.1-.13.5.06.67.56.55Z"/>
      <path class="cls-12" d="M19.32,94.2c.22.15.31.37.33.63.01.13-.02.27-.14.33-.1.05-.23,0-.33-.08-.15-.11-.28-.24-.33-.44.22-.08.35-.26.47-.45Z"/>
      <path class="cls-8" d="M245.53,94.32c-.13.27-.32.49-.63.58-.13.04-.23-.02-.25-.16-.05-.37.03-.7.32-.96.13.23.31.43.55.55Z"/>
      <path class="cls-17" d="M131.48,188.84c-.81-.02-2.01-.04-3.2-.08-.69-.02-1.39-.06-2.07-.18-.25-.04-.5-.07-.75-.09-3.65-.3-7.23-1.04-10.75-2.02-3.4-.95-6.71-2.17-9.91-3.66-5.52-2.56-10.61-5.8-15.28-9.7-5.11-4.26-9.58-9.12-13.46-14.52-3.8-5.29-6.95-10.95-9.56-16.92-2.58-5.9-4.61-11.99-6.11-18.25-.12-.49-.3-.96-.32-1.47,0-.28.1-.5.31-.65.47-.31.96-.6,1.46-.88,6.47-3.66,13.07-7.09,19.78-10.28,9.16-4.36,18.51-8.28,28.04-11.77,6.27-2.3,12.6-4.4,19.02-6.24,1.09-.31,2.17-.65,3.29-.86.28-.05.73.08,3.47.87,7.15,2.04,14.19,4.42,21.15,7.02,9.27,3.47,18.36,7.35,27.27,11.64,6.53,3.14,12.95,6.5,19.24,10.1.27.16.57.28.79.52.13.14.22.31.18.51-.8,3.5-1.76,6.96-2.89,10.37-1.74,5.27-3.86,10.39-6.42,15.32-2.83,5.44-6.15,10.56-10.05,15.3-4.84,5.88-10.41,10.96-16.8,15.12-5.2,3.39-10.75,6.05-16.69,7.88-3.07.95-4.53,1.28-7.33,1.81-1.73.33-3.47.63-5.23.75-2.25.35-4.52.33-7.18.35Z"/>
      <path class="cls-17" d="M38.32,72.33c-1.16-.02-2.17-.04-3.18-.06-.88-.02-1.76-.05-2.64-.19-.37-.06-.75-.09-1.13-.1-1.58-.04-3.13-.34-4.69-.51-.3-.03-.56-.33-.56-.66-.02-1.51-.02-3.02.12-4.53.06-.69.12-1.38.16-2.07.06-1.01.09-2.02.29-3.01.03-.12.04-.25.05-.38.23-2.45.67-4.86,1.15-7.27.89-4.46,2.19-8.8,3.92-13,1.76-4.26,3.96-8.29,6.71-12.01,4.98-6.73,11.28-11.82,18.92-15.25,2.82-1.27,5.73-2.27,8.73-3.03,2.64-.67,2.94-.72,5.92-1.21.93-.15,1.85-.38,2.81-.3.05,0,.12.04.14.08.08.13.06.25-.04.34-.19.17-.37.35-.56.5-1.05.8-2.06,1.67-3.04,2.55-5.14,4.65-9.42,9.98-12.61,16.15-1.62,3.15-2.91,6.42-3.72,9.87-.07.3-.21.59-.21.92,0,.19.16.38.32.32.23-.09.48-.16.7-.28,2.93-1.49,5.69-3.23,8.31-5.22,1.41-1.07,2.75-2.21,4.03-3.43,2.85-2.71,5.3-5.74,7.13-9.23.11-.22.26-.42.41-.62.03-.05.13-.1.16-.08.1.06.2.13.28.22.04.04.06.11.06.18.29,2.25.52,4.51.44,6.78-.04,1.01-.04,2.02-.21,3.01-.03.19-.05.38-.06.56-.2,2.9-.83,5.73-1.63,8.52-.8,2.79-1.87,5.48-3.16,8.08-1.68,3.4-3.73,6.57-6.07,9.55-1.36,1.74-2.85,3.37-4.38,4.95-.13.13-.29.24-.44.35-.1.07-.23.07-.36,0-.11-.06-.22-.12-.31-.21-.32-.3-.63-.62-.94-.93-4.32-4.32-8.65-8.64-12.97-12.97-.31-.31-.62-.63-.92-.95-.18-.19-.3-.41-.31-.67,0-1.26,0-2.52.02-3.78,0-.18.08-.36.28-.46.34-.17.67-.35.99-.55,1.57-1.01,2.49-2.47,2.8-4.3.19-1.15-.02-2.26-.51-3.31-.78-1.7-2.07-2.81-3.88-3.34-.49-.14-.97-.27-1.48-.26-2.57.04-4.45,1.2-5.63,3.47-.38.73-.57,1.53-.56,2.37,0,.13,0,.25,0,.38.04,2.12,1.01,3.73,2.71,4.92.36.25.76.44,1.15.65.19.1.24.29.27.47.03.25.03.5.03.75,0,.76,0,1.51,0,2.27,0,.44,0,.88,0,1.32,0,1.19.07,1.36.87,2.19.35.36.71.71,1.07,1.07,4.46,4.46,8.91,8.91,13.37,13.37.36.36.7.72,1.05,1.09.13.14.13.37,0,.5-.09.09-.16.2-.25.28-1.72,1.48-3.48,2.9-5.32,4.23-.42.3-.88.51-1.37.6-.93.17-1.83.46-2.78.53-1.54.35-3.13.37-4.68.6-.43.06-.88.06-1.32.07-1.2.03-2.39.05-3.44.07Z"/>
      <path class="cls-17" d="M225.88,72.33c-1.15-.02-2.28-.04-3.42-.06-.76-.02-1.51-.06-2.26-.18-.37-.06-.75-.09-1.13-.12-1.83-.12-3.62-.51-5.4-.88-.62-.13-1.18-.4-1.7-.79-2.13-1.57-4.19-3.24-6.16-5.01-.09-.08-.17-.19-.23-.29-.07-.1-.06-.23.02-.35.07-.11.14-.21.22-.3.4-.41.8-.81,1.2-1.21,4.14-4.15,8.29-8.29,12.44-12.44.36-.36.72-.71,1.06-1.08.4-.43.63-.94.64-1.53,0-1.2,0-2.4,0-3.59,0-.38,0-.76.04-1.13.01-.18.07-.37.26-.47.27-.16.55-.3.82-.46,1.12-.66,1.95-1.58,2.48-2.77.36-.82.6-1.66.56-2.56-.11-2.53-1.62-4.85-4.24-5.67-.54-.17-1.09-.33-1.66-.32-2.48.03-4.34,1.12-5.55,3.29-.4.72-.63,1.51-.64,2.35,0,.31-.01.63,0,.94.12,1.81.94,3.24,2.36,4.34.25.19.52.36.79.51,1.01.55.99.48.99,1.78,0,.88-.01,1.76-.02,2.65,0,.26-.11.49-.28.69-.2.24-.43.46-.65.69-4.32,4.32-8.65,8.65-12.97,12.97-.18.18-.37.34-.55.51-.19.18-.45.16-.66-.05-.09-.09-.18-.17-.27-.26-3.47-3.69-6.45-7.74-8.83-12.22-2.15-4.03-3.7-8.27-4.68-12.73-.38-1.72-.67-3.47-.82-5.22-.16-1.82-.21-3.65-.16-5.48.02-.76.07-1.51.09-2.27.03-1.01.19-2,.44-2.98.01-.04.06-.1.11-.11.15-.02.23.06.3.19.18.33.37.66.55.99,1.29,2.4,2.89,4.58,4.72,6.6,3.03,3.34,6.51,6.13,10.32,8.52,1.39.87,2.8,1.7,4.28,2.41.17.08.35.12.53.18.14.05.39-.16.37-.32-.04-.31-.05-.63-.13-.93-.78-2.99-1.83-5.89-3.18-8.68-1.74-3.59-3.88-6.92-6.36-10.04-2.2-2.77-4.65-5.31-7.3-7.65-1.04-.92-2.13-1.77-3.19-2.66-.03-.03-.04-.11-.03-.17,0-.05.02-.12.05-.15.04-.04.12-.06.18-.05.5.03,1.01.03,1.51.1.87.12,1.75.25,2.61.42,2.47.48,4.93,1.04,7.34,1.79,4.42,1.37,8.6,3.26,12.48,5.77,3.67,2.38,6.96,5.2,9.84,8.5,3.47,3.97,6.22,8.39,8.41,13.18,1.58,3.44,2.81,7.01,3.8,10.66.58,2.13,1.01,4.29,1.45,6.45.12,1.19.46,2.35.52,3.55.34,1.61.31,3.26.58,4.88.03.19.04.38.05.56.1,2.01.17,4.03.15,6.05,0,.12-.04.25-.05.37-.01.12-.24.4-.34.42-.19.03-.37.08-.56.1-1,.12-2,.26-3,.36-1,.1-2.01.13-3.01.27-.5.07-1.01.08-1.51.09-1.2.03-2.39.05-3.58.08Z"/>
      <path class="cls-17" d="M206.92,105.18c-.09-.81-.2-1.63-.28-2.44-.06-.69-.11-1.38-.13-2.07-.03-1.51.03-3.02.23-4.52.19-1.44.44-2.86.79-4.26.76-3.08,1.99-5.96,3.59-8.7,1.37-2.35,3-4.5,4.86-6.49.26-.28.54-.53.82-.78.09-.08.23-.12.35-.12.25,0,.51-.01.75.04.87.18,1.75.23,2.63.27,1.26.07,2.51.17,3.77.21,1.07.04,2.14.04,3.21,0,1.51-.05,3.02-.15,4.53-.23.75-.04,1.51-.09,2.26-.21.56-.09,1.13-.11,1.69-.17.62-.06,1.25-.13,1.88-.18.09,0,.26.11.29.2.23.79.38,1.59.43,2.41.12,1.95.14,3.9,0,5.85-.09,1.19-.3,2.37-.54,3.54-.94,4.63-2.84,8.85-5.39,12.8-1.44,2.23-3.06,4.32-4.83,6.28-3.82,4.24-8.15,7.87-12.92,10.98-.42.27-.87.51-1.31.76-.18.1-.37.05-.55-.01-.12-.04-.23-.11-.34-.17-1.64-.93-3.29-1.86-4.93-2.79-.16-.09-.29-.23-.43-.36-.11-.1-.13-.22-.04-.34.11-.15.21-.31.34-.44,2.98-2.72,5.96-5.43,8.94-8.15,1.63-1.48,3.26-2.97,4.89-4.45.23-.21.45-.44.65-.68.11-.14.18-.33.23-.51.06-.24.07-.5.09-.75.09-1.19.16-2.39.25-3.58.02-.25.12-.49.38-.61.17-.08.35-.15.51-.24.27-.16.54-.32.79-.51,1.11-.83,1.75-1.96,2.02-3.3.1-.5.11-1.01.01-1.5-.42-2.17-1.67-3.62-3.79-4.28-.18-.06-.37-.09-.56-.1-.31-.03-.63-.04-.94-.04-1.73-.02-3.59,1.13-4.41,2.78-.31.63-.48,1.29-.52,2-.11,1.91.6,3.44,2.14,4.57.25.19.52.35.78.52.18.12.25.3.24.48-.01,1.01-.05,2.01-.08,3.02,0,.26-.14.48-.33.66-1.39,1.28-2.78,2.56-4.18,3.83-2.28,2.08-4.56,4.15-6.85,6.23-1.26,1.14-2.52,2.28-3.79,3.41-.1.09-.23.11-.36.05-.23-.1-.46-.2-.68-.33-2.8-1.58-5.59-3.16-8.38-4.75-.22-.12-.46-.23-.6-.44-.08-.12-.09-.27,0-.33.15-.11.32-.2.49-.27,3.34-1.31,6.68-2.62,10.01-3.93.23-.09.56.02.66.21.12.22.23.45.35.67.28.56.55,1.13.83,1.69.57.32.54-.03.46-.42Z"/>
      <path class="cls-17" d="M57.8,105.19c.44-.62.65-1.36,1.07-1.99.09-.14.34-.24.5-.19.06.02.13.02.18.04.3.11.59.22.88.34,2.93,1.15,5.86,2.29,8.79,3.44.23.09.46.2.69.3.17.07.2.31.08.44-.13.15-.29.24-.45.33-2.69,1.52-5.37,3.04-8.06,4.56-.77.43-1.54.87-2.31,1.3-.2.11-.44.09-.51-.04-.28-.58-.7-1.04-1.17-1.46-2.15-1.95-4.29-3.9-6.43-5.86-2.33-2.12-4.66-4.24-6.99-6.37-.19-.17-.38-.34-.54-.52-.17-.19-.3-.41-.32-.67-.09-1-.14-2.01-.09-3.02,0-.11.07-.25.16-.32.25-.2.52-.36.78-.54.42-.29.79-.62,1.12-1.01.76-.9,1.12-1.96,1.23-3.11.01-.12.01-.25,0-.38-.24-2.19-1.29-3.77-3.37-4.62-.6-.24-1.21-.3-1.85-.32-1.97-.05-4.03,1.26-4.79,3.37-.28.77-.36,1.58-.25,2.42.23,1.76,1.15,3.02,2.67,3.89.27.16.6.21.82.46.08.09.18.2.2.31.06.31.09.62.11.94.05,1.07.09,2.14.13,3.21.02.4.21.72.46,1.01.12.14.26.27.4.4,1.16,1.07,2.32,2.13,3.48,3.19,1.86,1.7,3.74,3.39,5.6,5.08,1.35,1.23,2.7,2.46,4.05,3.69.37.34.75.68,1.09,1.04.22.23.3.55.28.88-.02.27-.14.48-.34.64-.05.04-.1.08-.16.11-1.26.71-2.52,1.43-3.78,2.14-.31.18-.61.12-.89-.05-.38-.23-.76-.45-1.13-.69-2.6-1.68-5.06-3.54-7.39-5.57-2.05-1.78-3.99-3.67-5.78-5.71-2.05-2.32-3.89-4.79-5.47-7.46-1.42-2.39-2.58-4.9-3.46-7.54-.56-1.68-.94-3.4-1.27-5.13-.06-.31-.08-.63-.11-.94-.05-.44-.07-.88-.13-1.32-.24-1.82-.24-3.64,0-5.47.09-.69.13-1.38.21-2.07.02-.18.09-.36.14-.54.03-.1.35-.34.44-.33,1.31.15,2.63.31,3.94.45.5.05,1,.09,1.51.12,1.57.09,3.15.18,4.72.25,1.26.05,2.52.06,3.78-.02.88-.06,1.76-.11,2.64-.15,1.13-.06,2.27-.09,3.38-.33.06-.01.13-.01.19-.02.4-.06.75.04,1.03.33.35.36.71.71,1.05,1.09,2.9,3.21,5.18,6.81,6.77,10.84.69,1.76,1.24,3.57,1.61,5.43.28,1.42.52,2.85.55,4.31.04,1.45.06,2.9-.02,4.35-.03.63-.06,1.26-.08,1.89.07.42-.75,1.14.4,1.18Z"/>
      <path class="cls-17" d="M257.09,96.68c-.03.33-.08.89-.13,1.46-.03.31-.09.62-.11.94-.2,2.65-.76,5.23-1.44,7.79-1.92,7.15-5.23,13.61-9.76,19.46-.12.15-.24.29-.37.43-.14.17-.48.26-.68.18-.18-.07-.36-.12-.54-.19-3.22-1.3-6.34-2.79-9.3-4.61-.96-.59-1.89-1.26-2.82-1.9-.15-.1-.28-.25-.41-.39-.09-.09-.11-.23-.04-.35.09-.16.2-.32.33-.45,1.04-1.01,2.08-2.02,3.12-3.03,2.76-2.67,5.53-5.34,8.3-8.01,4.17-4.03,8.34-8.06,12.51-12.08.27-.26.56-.5.85-.75.11-.1.23-.09.35,0,.1.07.15.16.15.31,0,.31,0,.63,0,1.18Z"/>
      <path class="cls-17" d="M7.08,97.13c.01-.56.02-1.13.03-1.69,0-.16.07-.23.23-.24.12,0,.22.02.33.12.27.26.55.51.83.77,4.35,4.2,8.69,8.4,13.04,12.6,3.35,3.24,6.7,6.47,10.05,9.71.27.26.54.53.81.79.37.37.37.62-.02.91-1.26.94-2.58,1.8-3.94,2.59-2.83,1.65-5.78,3.06-8.84,4.24-.32.12-.57.06-.83-.24-.04-.05-.08-.09-.12-.14-1.56-1.98-2.98-4.06-4.27-6.23-2.42-4.08-4.26-8.41-5.55-12.98-.5-1.76-.92-3.53-1.19-5.34-.25-1.61-.55-3.23-.55-4.88Z"/>
      <path class="cls-17" d="M224.73,134.58c-4.67,1.29-9.34,2.58-14.02,3.86-.42.12-.84.28-1.28.3-.11,0-.23-.09-.26-.22-.03-.18-.03-.38,0-.56.29-1.22.57-2.45.83-3.68.3-1.42.56-2.84.67-4.29.06-.75.17-1.5.27-2.25.04-.26.2-.45.46-.55,2.24-.83,4.49-1.66,6.73-2.49,2.84-1.04,5.67-2.08,8.51-3.12.18-.06.38-.05.55.05.21.14.41.3.61.45.6.46,1.2.92,1.8,1.37,2.13,1.58,4.41,2.92,6.76,4.14,1.34.7,2.7,1.35,4.08,1.97.17.07.33.17.43.35.02.04.03.13.02.15-.32.21-.7.29-1.06.39-3.82,1.05-7.65,2.09-11.47,3.14-1.21.33-2.43.67-3.64,1h0Z"/>
      <path class="cls-17" d="M54.94,138.57c-.07.12-.17.19-.3.16-1.23-.27-2.43-.63-3.64-.96-5.1-1.4-10.19-2.79-15.29-4.19-3.64-1-7.28-2.01-10.92-3-.49-.13-.97-.27-1.43-.46-.05-.02-.13-.09-.13-.1.06-.11.1-.24.2-.31.15-.11.32-.2.49-.27,2.71-1.2,5.33-2.57,7.84-4.14,1.55-.97,3.04-2.01,4.46-3.17.19-.16.4-.31.6-.46.16-.12.36-.16.54-.11.36.1.72.23,1.07.36,4.49,1.65,8.98,3.3,13.46,4.95.3.11.59.22.87.36.23.11.4.3.45.57.01.06.03.12.03.19.01,1.45.27,2.88.46,4.32.13.93.35,1.85.54,2.78.22,1.05.46,2.09.69,3.13.03.12,0,.24,0,.37Z"/>
      <path class="cls-17" d="M216.49,155.48c-2.01.03-4.02.06-6.04.1-1.38.03-2.77.06-4.15.15-1,.07-2.01.05-3.02.07-.36,0-.5-.27-.32-.65.03-.06.05-.12.07-.17.05-.11.1-.23.16-.34,1.1-2.19,2.08-4.44,2.95-6.73.04-.12.09-.24.16-.34.1-.16.22-.32.41-.36.8-.18,1.6-.31,2.42-.37.69-.05,1.38-.1,2.06-.24.37-.07.75-.1,1.12-.13.69-.06,1.38-.11,2.06-.25.31-.06.62-.09.94-.11.88-.07,1.75-.15,2.62-.31.43-.08.88-.08,1.31-.13.5-.05,1-.12,1.5-.18.37-.05.75-.11,1.12-.15.81-.07,1.63-.13,2.43-.29.43-.08.88-.09,1.31-.14.56-.06,1.12-.13,1.68-.2.44-.05.87-.12,1.31-.15.69-.06,1.38-.11,2.06-.25.25-.05.5-.07.75-.09.94-.07,1.88-.16,2.81-.32.43-.08.88-.07,1.31-.09.15,0,.24.07.28.18.05.13.04.24-.03.36-.07.11-.11.22-.18.33-1.76,2.98-3.31,6.07-4.7,9.24-.52,1.2-.49,1.22-1.79,1.24-1.32.02-2.64.04-3.96.07-1.07.03-2.14.1-3.2.13-1.82.06-3.65.1-5.47.14,0,0,0-.01,0-.02Z"/>
      <path class="cls-17" d="M46.59,155.46c-1.2-.03-3.35-.05-5.49-.17-1.7-.09-3.4-.09-5.1-.12-.25,0-.5,0-.76-.01-1.63-.04-1.46.1-2.09-1.34-1.41-3.17-2.96-6.26-4.72-9.25-.06-.11-.11-.23-.16-.34-.08-.16.06-.41.22-.42.57-.02,1.13.03,1.69.14.62.12,1.25.17,1.88.23.56.05,1.13.13,1.69.2.38.05.75.1,1.13.14.82.07,1.63.13,2.44.29.43.08.88.09,1.32.14.44.05.88.07,1.31.15.62.11,1.25.17,1.88.23.56.05,1.13.13,1.69.2.44.05.87.12,1.31.15.69.06,1.38.11,2.06.25.31.06.62.08.94.11.82.07,1.63.12,2.44.29.37.07.75.09,1.13.12.69.06,1.38.12,2.06.24.49.09,1,.12,1.5.16.82.06,1.63.2,2.43.37.18.04.34.15.42.34.07.17.16.34.23.52.89,2.36,1.93,4.65,3.04,6.91.05.11.08.24.12.35.05.15-.09.43-.24.44-.12,0-.25.05-.37.04-.94-.02-1.89-.04-2.83-.08-.94-.03-1.89-.1-2.83-.12-2.46-.05-4.91-.09-8.31-.15Z"/>
      <path class="cls-17" d="M252.86,162.6c-.03.13-.1.24-.21.3-.28.13-.57.27-.86.39-3.11,1.24-6.08,2.75-8.97,4.42-.49.28-.99.56-1.48.83-.15.08-.38.04-.52-.09-.09-.09-.19-.16-.28-.25-1.87-1.98-3.47-4.16-4.81-6.53-.47-.82-.9-1.66-1.25-2.54-.8-2-.83-1.41,0-3.36,1.39-3.25,2.96-6.4,4.78-9.43.13-.22.26-.43.41-.64.07-.1.17-.23.27-.24.1-.01.23.09.32.18.14.13.26.28.37.43,3.82,5.09,7.64,10.18,11.45,15.27.26.35.5.72.74,1.09.03.05.03.11.04.17Z"/>
      <path class="cls-17" d="M17.25,165.47c-1.47-.72-2.97-1.38-4.47-2.01-.41-.17-.81-.33-1.22-.5-.22-.09-.35-.45-.22-.63.14-.21.27-.42.42-.62,3.73-4.98,7.47-9.97,11.21-14.95.3-.4.63-.79.94-1.18.1-.12.38-.07.49.08.11.15.23.3.33.46,2.08,3.46,3.84,7.07,5.39,10.79.15.37.12.73-.02,1.1-1.23,3.2-3.02,6.08-5.21,8.7-.44.53-.92,1.04-1.39,1.54-.34.37-.58.41-.98.17-.38-.22-.75-.45-1.14-.67-1.37-.76-2.75-1.52-4.13-2.28Z"/>
      <path class="cls-17" d="M183.02,178.58c.75-.57,1.52-1.12,2.26-1.7,4.31-3.32,8.07-7.19,11.34-11.53.26-.35.54-.7.83-1.03.08-.09.21-.15.32-.18.24-.06.49-.1.74-.11.69-.05,1.38-.09,2.07-.11,1.76-.05,3.52-.08,5.28-.13,1.38-.04,2.76-.08,4.15-.18,1.25-.09,2.51-.08,3.77-.11.16,0,.24.05.27.2.02.12,0,.24-.1.34-.17.18-.36.35-.53.53-.8.8-1.6,1.6-2.39,2.41-1.85,1.89-3.58,3.88-5.27,5.92-.16.19-.31.4-.48.58-.17.18-.39.31-.63.4-.12.04-.24.08-.36.11-5.44,1.3-10.87,2.6-16.31,3.91-1.34.32-2.68.67-4.02.99-.3.07-.62.09-.93.14-.11-.1-.15-.19-.11-.29.04-.1.07-.15.11-.15Z"/>
      <path class="cls-17" d="M79.36,178.6c-.25-.03-.51-.03-.75-.09-4.4-1.07-8.8-2.14-13.2-3.21-1.9-.46-3.8-.89-5.69-1.34-.38-.09-.7-.28-.95-.58-.49-.58-.98-1.15-1.47-1.73-1.8-2.11-3.65-4.17-5.62-6.12-.49-.49-.99-.97-1.47-1.47-.07-.08-.09-.22-.11-.33,0-.05.04-.15.08-.16.11-.04.24-.07.36-.07,1.38.03,2.77.05,4.15.16.88.07,1.76.09,2.64.11,2.08.06,4.15.09,6.23.16.82.03,1.63.1,2.45.16.4.03.7.23.94.55.82,1.11,1.68,2.2,2.57,3.26,2.8,3.34,5.92,6.36,9.37,9.03.55.42,1.08.86,1.63,1.29-.12.91-.69.49-1.15.38Z"/>
      <path class="cls-17" d="M46.02,183.11c-.25-.03-.5-.04-.75-.1-.92-.22-1.87-.25-2.81-.32-.82-.06-1.63-.13-2.42-.34-.09-.02-.15-.18-.22-.27.1-.56.17-1.12.29-1.67,1.16-4.93,3.08-9.55,5.74-13.86.07-.11.16-.19.24-.29.09-.12.38-.15.51-.04.15.12.3.23.44.36,2.61,2.46,5.03,5.1,7.35,7.83.16.19.31.39.47.59.21.26.3.55.22.88-.3,1.35-.6,2.7-1.04,4.01-.46,1.37-.97,2.72-1.61,4.02-.06.11-.36.28-.48.26-.8-.15-1.6-.32-2.4-.46-1.17-.21-2.35-.41-3.52-.62v.03Z"/>
      <path class="cls-17" d="M209.09,176.06c-.05-.6.01-.9.23-1.16,1.13-1.35,2.28-2.69,3.48-3.98,1.42-1.52,2.87-3.01,4.39-4.43.14-.13.29-.25.46-.32.09-.04.27,0,.34.08.17.18.32.38.45.6,1.96,3.24,3.52,6.67,4.66,10.29.44,1.38.77,2.79,1.09,4.2.06.24.06.5.04.75,0,.1-.12.26-.21.28-.73.19-1.49.26-2.24.31-1.91.14-3.24.34-5.42.7-1.37.22-2.72.49-4.07.78-.22.05-.51-.11-.62-.33-.14-.28-.27-.57-.4-.85-.85-1.9-1.48-3.88-1.97-5.9-.1-.43-.17-.86-.2-1.03Z"/>
      <path class="cls-17" d="M223.76,186.78c.01.06.04.13.03.18-.03.12-.06.24-.11.36-1.35,3.07-3.07,5.91-5.24,8.47-2.26,2.67-4.9,4.88-8.07,6.4-.11.05-.23.12-.35.14-.12.02-.27.04-.35-.01-.08-.06-.11-.22-.12-.33-.01-.12.01-.25.04-.37.99-4.03,1.98-8.05,2.97-12.08.11-.43.23-.85.42-1.25.02-.05.09-.09.14-.12.45-.24.95-.33,1.44-.42,1.92-.34,3.82-.76,5.77-.92.81-.07,1.61-.28,2.43-.28.25,0,.5,0,.75.02.15,0,.24.08.25.22Z"/>
      <path class="cls-17" d="M41.43,186.53c.53.06,1.1.13,1.66.2.25.03.5.09.75.11,1.89.15,3.73.56,5.59.89.49.09.97.25,1.46.38.2.06.33.22.38.39.31,1.15.6,2.31.89,3.47.71,2.87,1.42,5.74,2.12,8.61.12.49.22.98.32,1.48.02.12-.06.23-.18.29-.05.03-.13.04-.18.03-.12-.02-.25-.05-.36-.1-2.7-1.29-5.03-3.09-7.09-5.25-2.45-2.58-4.36-5.52-5.9-8.72-.16-.34-.31-.69-.46-1.03-.22-.5-.07-.75.42-.73.19,0,.38,0,.6,0Z"/>
      <path class="cls-9" d="M21.09,173.78c-.02.41-.02.73-.06,1.04-.22,1.81-.25,3.63-.31,5.45-.05,1.32-.19,2.63-.32,3.94-.02.16-.08.24-.24.22-.06,0-.13,0-.17-.03-.15-.11-.3-.23-.43-.36-1.82-1.84-3.32-3.92-4.6-6.17-1.59-2.79-2.81-5.74-3.66-8.84-.13-.48-.36-.94-.35-1.46,0-.17.19-.37.34-.34.06.01.12,0,.19.02.06.01.12.02.18.05,3.13,1.32,6.12,2.9,9,4.69.05.03.1.07.15.12.14.13.28.27.28.47.01.44,0,.88,0,1.22Z"/>
      <path class="cls-9" d="M243.14,175.49c-.03-.88-.07-1.76-.11-2.64-.02-.42.17-.73.52-.94.97-.58,1.94-1.16,2.93-1.72,1.92-1.08,3.89-2.05,5.92-2.9.17-.07.36-.12.55-.06.12.04.24.15.22.26-.11.75-.33,1.47-.55,2.19-.77,2.53-1.75,4.97-3,7.31-1.4,2.62-3.11,5.02-5.18,7.15-.13.13-.26.29-.46.3-.11,0-.22-.07-.33-.11-.02-.19-.06-.37-.07-.56-.03-.75-.06-1.51-.09-2.26-.02-.5-.02-1.01-.08-1.51-.18-1.5-.21-3.01-.27-4.52Z"/>
      <path class="cls-6" d="M43.13,39.44c-1.08.02-1.74-.49-2.17-1.33-.11-.21-.14-.48-.17-.72-.11-1.1.54-1.9,1.33-2.25.93-.42,2.06-.15,2.68.67.23.3.39.64.47,1.01.22.98-.52,2.31-1.68,2.56-.18.04-.37.05-.46.06Z"/>
      <path class="cls-19" d="M219.16,39.44c-1.14.02-2.23-1.03-2.18-2.36.06-1.33,1.24-2.15,2.21-2.16,1.15-.01,2.28.95,2.29,2.3.01,1.09-.9,2.28-2.33,2.22Z"/>
      <path class="cls-19" d="M43.13,90.57c.06,1.1-.73,1.92-1.81,1.99-.92.07-1.93-.65-1.99-1.83-.05-.95.65-1.91,1.83-2,.87-.07,1.96.65,1.98,1.83Z"/>
      <path class="cls-19" d="M223.18,90.7c0,1.15-.98,1.9-1.94,1.86-1.13-.04-1.91-.96-1.86-1.96.06-1.23,1.01-1.91,1.95-1.86,1.08.05,1.88.85,1.84,1.96Z"/>
      <path class="cls-16" d="M57.8,105.19c0,.32-.18.57-.36.82-.07.1-.18.14-.31.09-.04-.01-.06-.1-.07-.16-.05-.55,0-1.09.15-1.62.03-.11.12-.21.18-.31.03.25.06.49.11.73.03.19.14.34.3.45Z"/>
      <path class="cls-3" d="M206.92,105.18c.34.33.36.74.28,1.17-.01.05-.05.13-.1.15-.1.04-.22,0-.31-.09-.23-.22-.35-.48-.33-.81.24-.04.34-.25.46-.42Z"/>
      <path class="cls-18" d="M79.36,178.6c.18-.02.36-.04.54-.05.26-.01.46-.11.61-.33.11.03.22.05.32.1.15.08.29.18.43.28.1.36-.03.53-.41.46-.23-.04-.46-.07-.7-.11-.3-.04-.57-.14-.79-.35Z"/>
      <path class="cls-13" d="M80.85,179.06c.18-.11.35-.23.41-.46.25.06.43.2.54.43.06.13.02.24-.13.27-.32.08-.59-.01-.82-.24Z"/>
      <path class="cls-14" d="M183.02,178.58c0,.14,0,.29,0,.43-.03.05-.05.12-.1.16-.18.14-.44.12-.49-.02-.03-.11,0-.21.1-.32.13-.14.28-.25.48-.25Z"/>
      <path class="cls-7" d="M129.98,129.33c0-6.36,0-12.73,0-19.09,0-.44-.02-.88-.06-1.32,0-.11-.11-.22-.2-.31-.23-.22-.53-.33-.81-.48-1.31-.74-2.24-1.81-2.77-3.23-.11-.3-.2-.59-.25-.91-.12-.82-.11-1.63.02-2.45.03-.19.07-.37.13-.55.69-1.97,2.02-3.3,4-3.98.18-.06.37-.1.55-.13.56-.09,1.13-.12,1.7-.08,2.04.13,3.57,1.11,4.67,2.8.56.86.82,1.83.95,2.84.02.19.02.38,0,.57-.18,1.99-.97,3.64-2.64,4.79-.36.25-.76.45-1.13.68-.23.14-.35.36-.36.63-.01.44-.02.88-.02,1.32,0,12.16,0,24.32,0,36.48,0,.44,0,.88.01,1.32,0,.33.13.61.37.84.4.4.8.81,1.2,1.21,4.63,4.63,9.27,9.27,13.9,13.9.4.4.81.8,1.18,1.23.25.29.41.63.42,1.03,0,.06.01.13.01.19,0,1.64,0,3.28,0,4.91,0,.88-.61,1.62-1.34,1.86-.68.21-1.25.04-1.76-.37-.41-.33-.65-.77-.67-1.31-.02-.44-.01-.88-.02-1.32,0-.82-.02-1.64,0-2.46,0-.41-.17-.73-.44-1-.4-.41-.8-.8-1.2-1.2-4.59-4.59-9.18-9.18-13.77-13.77-.36-.36-.71-.72-1.07-1.07-.43-.42-.6-.95-.61-1.54,0-.57,0-1.13,0-1.7,0-6.11,0-12.22,0-18.34Z"/>
      <path class="cls-7" d="M113.04,162.07c0-2.77,0-5.54,0-8.31,0-.44-.01-.88-.02-1.32,0-.26-.12-.49-.3-.67-.35-.37-.7-.73-1.05-1.08-2.14-2.14-4.27-4.27-6.41-6.41-2.49-2.49-4.99-4.99-7.48-7.48-.36-.36-.71-.71-1.06-1.08-.4-.43-.64-.93-.63-1.53,0-.5,0-1.01,0-1.51,0-1.2-.01-2.39,0-3.59,0-.49-.16-.85-.61-1.06-.23-.11-.45-.22-.67-.35-1.49-.88-2.38-2.2-2.83-3.85-.12-.43-.11-.87-.13-1.31-.09-2.31,1.45-4.94,4.25-5.84.18-.06.37-.1.55-.13.62-.1,1.25-.13,1.88-.08.64.05,1.24.19,1.82.46,1.56.72,2.64,1.88,3.25,3.49.34.91.41,1.83.33,2.79-.03.45-.18.86-.33,1.28-.46,1.28-1.24,2.32-2.4,3.06-.32.2-.65.37-.97.58-.22.14-.35.36-.35.63,0,1.45,0,2.9,0,4.34,0,.26.11.49.29.68.39.41.78.82,1.18,1.22,4.54,4.54,9.08,9.08,13.62,13.62.36.36.71.71,1.06,1.07.13.13.26.28.37.43.22.31.39.65.4,1.04,0,.38.02.76.02,1.13,0,6.11,0,12.21,0,18.32,0,.38,0,.76-.02,1.13-.05.68-.41,1.18-1,1.51-.96.54-2.02.07-2.47-.67-.13-.22-.25-.44-.26-.7-.02-.44-.04-.88-.04-1.32,0-2.83,0-5.67,0-8.5Z"/>
      <path class="cls-7" d="M147.07,153.19c.01-.88.02-1.76.04-2.65,0-.33.15-.61.34-.87.11-.15.23-.3.36-.43.4-.41.8-.81,1.2-1.21,4.59-4.59,9.18-9.18,13.77-13.77.4-.4.81-.8,1.19-1.21.22-.24.34-.53.34-.86,0-1.13,0-2.27-.02-3.4,0-.26-.14-.49-.37-.63-.27-.16-.55-.31-.82-.47-.55-.32-1.02-.74-1.45-1.21-.56-.61-.98-1.33-1.22-2.11-.24-.78-.37-1.6-.26-2.42.02-.12.03-.25.05-.37.29-2.02,1.38-3.48,3.14-4.46.67-.37,1.38-.61,2.16-.63.44-.01.88-.02,1.32,0,1.11.05,2.08.48,2.96,1.12,1,.73,1.7,1.69,2.11,2.84.23.65.4,1.35.37,2.04-.09,2.07-.92,3.77-2.64,4.98-.31.22-.65.39-.98.57-.37.2-.52.52-.52.93,0,1.13,0,2.27,0,3.4,0,.38,0,.76-.03,1.13-.05.51-.21.99-.58,1.36-.4.4-.79.81-1.19,1.21-4.54,4.55-9.09,9.09-13.63,13.64-.27.27-.54.53-.8.8-1.13,1.15-1.01.86-1.02,2.46,0,.95,0,1.89-.02,2.84-.03.88-.74,1.76-1.87,1.76-.84,0-1.4-.41-1.77-1.2-.05-.11-.08-.24-.09-.36-.02-.38-.04-.75-.04-1.13,0-.57,0-1.13,0-1.7h-.01Z"/>
      <path class="cls-7" d="M113.04,129.76c0-3.15,0-6.3,0-9.45,0-.5-.03-1.01-.04-1.51,0-.22-.16-.33-.3-.45-.09-.08-.21-.14-.32-.2-.22-.12-.45-.23-.66-.37-1.22-.76-2.04-1.83-2.53-3.19-.38-1.04-.36-2.1-.22-3.17.49-1.94,1.58-3.4,3.4-4.29.87-.42,1.8-.55,2.76-.52.69.02,1.37.11,2.03.39,1.46.6,2.54,1.61,3.24,3.02.39.8.58,1.65.61,2.55.07,1.95-1.13,4.21-2.88,5.22-.33.19-.66.36-.98.57-.15.1-.28.26-.28.47-.01.57-.03,1.13-.03,1.7,0,6.11,0,12.22,0,18.33,0,.57,0,1.13-.02,1.7-.04.84-.81,1.76-1.89,1.74-.69-.01-1.2-.3-1.57-.88-.14-.22-.25-.45-.26-.7-.03-.44-.04-.88-.04-1.32,0-3.21,0-6.43,0-9.64Z"/>
      <path class="cls-7" d="M147.08,127.9c0-2.71,0-5.42,0-8.13,0-.31-.02-.63-.03-.94,0-.21-.13-.36-.28-.46-.31-.21-.65-.37-.98-.57-1.48-.9-2.36-2.24-2.76-3.9-.1-.42-.1-.87-.11-1.31-.02-1.59.59-2.95,1.65-4.1.6-.65,1.33-1.14,2.17-1.48.78-.32,1.58-.41,2.41-.39,2.27.05,3.96,1.12,5.1,3.05.52.88.76,1.85.8,2.88.07,2.13-1.2,4.27-2.86,5.23-.27.16-.55.3-.82.46-.28.17-.48.39-.48.75,0,.57-.01,1.13-.01,1.7,0,4.98,0,9.95,0,14.93,0,.57.02,1.14-.02,1.7-.05.75-.44,1.3-1.13,1.61-.17.08-.36.13-.54.17-.12.03-.25.03-.37,0-.57-.11-1.07-.35-1.4-.87-.14-.22-.26-.44-.28-.69-.03-.44-.04-.88-.04-1.32,0-2.77,0-5.54,0-8.31Z"/>
      <path class="cls-7" d="M130.06,176.65c0-1.26,0-2.52,0-3.78,0-.38,0-.76,0-1.13,0-.33-.08-.62-.41-.78-.28-.14-.56-.29-.83-.46-1.46-.91-2.38-2.21-2.8-3.87-.11-.43-.11-.87-.12-1.31-.05-2.38,1.46-4.67,3.75-5.62.65-.27,1.31-.44,2.02-.43.19,0,.38,0,.57,0,1.17,0,2.22.4,3.17,1.06,1.35.95,2.21,2.24,2.51,3.86.33,1.76-.07,3.38-1.15,4.81-.42.56-.92,1.03-1.52,1.4-.32.2-.65.39-.98.57-.32.17-.4.46-.4.78,0,.5,0,1.01,0,1.51,0,2.33,0,4.66,0,6.99,0,.44,0,.88-.02,1.32-.02.69-.59,1.44-1.33,1.67-.67.21-1.24.04-1.76-.37-.41-.32-.65-.77-.67-1.3-.01-.38-.02-.76-.02-1.13,0-1.26,0-2.52,0-3.78Z"/>
      <path class="cls-4" d="M164.12,157.56c-.02-1.45-.03-2.9-.05-4.34,0-.21-.15-.34-.29-.46-.09-.08-.21-.14-.32-.2-.22-.12-.45-.23-.66-.37-1.48-.9-2.39-2.24-2.75-3.9-.33-1.53-.07-3.01.75-4.36.78-1.29,1.9-2.17,3.32-2.65.42-.14.86-.19,1.3-.23.76-.07,1.52-.03,2.25.17,1.11.32,2.07.91,2.84,1.78.68.77,1.13,1.66,1.4,2.65.12.43.12.87.14,1.31.1,2.02-1.15,4.25-2.85,5.23-.33.19-.66.36-.98.57-.15.1-.29.24-.3.45,0,.44-.03.88-.03,1.32,0,2.02,0,4.03,0,6.05,0,.44,0,.88-.02,1.32-.02.69-.59,1.44-1.32,1.67-.68.22-1.24.04-1.76-.36-.41-.32-.65-.76-.67-1.3-.01-.31-.02-.63-.02-.94,0-1.13,0-2.27,0-3.4,0,0,.01,0,.02,0Z"/>
      <path class="cls-7" d="M96.03,159.07c-.01-1-.02-2.01-.05-3.01,0-.18-.07-.36-.27-.46-.33-.18-.67-.35-.99-.55-1.45-.92-2.4-2.22-2.76-3.89-.31-1.46-.12-2.88.62-4.19.95-1.69,2.4-2.73,4.3-3.07,1.76-.31,3.37.13,4.78,1.23,1.19.93,1.92,2.16,2.2,3.63.18.93.14,1.86-.14,2.79-.48,1.59-1.43,2.77-2.84,3.61-.27.16-.55.31-.82.46-.19.11-.23.3-.24.48-.02.75-.02,1.51-.03,2.26,0,1.19,0,2.39-.03,3.58-.01.61-.34,1.07-.83,1.41-.26.18-.57.28-.87.33-.76.14-1.88-.66-1.99-1.41-.03-.19-.06-.37-.06-.56-.01-.5,0-1.01-.01-1.51,0-.38,0-.75,0-1.13,0,0,0,0,.01,0Z"/>
      <path class="cls-5" d="M122.12,137.95c0-5.41,0-10.82,0-16.23,0-.57.02-1.13.05-1.7.01-.26.17-.47.36-.65.46-.45,1.28-.48,1.71-.04.22.23.35.52.41.84.03.18.04.38.04.56,0,.5,0,1.01,0,1.51,0,10.51,0,21.01,0,31.52,0,.63.01,1.26-.03,1.89-.03.53-.3.95-.8,1.19-.3.14-.6.16-.91.02-.49-.23-.79-.61-.81-1.17-.02-.57-.02-1.13-.02-1.7,0-5.35,0-10.69,0-16.04Z"/>
      <path class="cls-5" d="M139.17,132.44c0-3.59,0-7.17,0-10.76,0-.5,0-1.01.03-1.51.04-.47.31-.8.73-1.02.63-.33,1.38.04,1.61.53.08.17.16.35.17.53.03.38.03.75.03,1.13,0,7.55,0,15.1,0,22.65,0,.38,0,.76-.03,1.13-.05.47-.31.8-.74,1.02-.59.31-1.19.04-1.51-.37-.16-.2-.27-.43-.28-.69-.02-.5-.02-1.01-.02-1.51,0-3.71,0-7.42,0-11.14Z"/>
      <path class="cls-1" d="M158.76,130.95c0,1.32,0,2.65,0,3.97,0,.4-.18.73-.46,1-.24.23-.53.32-.86.32-.56,0-1.12-.49-1.19-1.03-.03-.25-.06-.5-.06-.75,0-2.33,0-4.66,0-6.99,0-.13,0-.25.01-.38.03-.64.37-1.05.95-1.28.24-.09.49-.08.73.03.06.03.12.05.17.08.41.24.65.59.7,1.06.02.25.03.5.03.75,0,1.07,0,2.14,0,3.21h-.02Z"/>
      <path class="cls-1" d="M107.72,130.9c0,1.38,0,2.77,0,4.15,0,.32-.17.6-.39.84-.38.41-1.1.47-1.55.13-.32-.24-.51-.55-.57-.94-.03-.19-.04-.38-.04-.56,0-2.33,0-4.66,0-6.99,0-.19,0-.38.03-.57.09-.61.49-1.09,1.26-1.21.06,0,.13,0,.19.02.17.07.36.12.51.23.33.22.55.53.57.93.03.88.02,1.76.03,2.64,0,.44,0,.88,0,1.32,0,0-.02,0-.02,0Z"/>
      <path class="cls-1" d="M156.19,158.13c0-1.2,0-2.39,0-3.59,0-.25.03-.5.07-.75.08-.52.67-.98,1.23-.97.57,0,1.13.47,1.22,1,.02.12.05.25.05.37,0,2.58,0,5.16,0,7.74,0,.12-.04.25-.05.37-.07.47-.73,1-1.24.99-.6,0-1.23-.6-1.26-1.2-.02-.31-.02-.63-.03-.94,0-1.01,0-2.01,0-3.02h0Z"/>
      <path class="cls-2" d="M107.73,160.47c0,1.32,0,2.65,0,3.97,0,.48-.27.83-.65,1.09-.35.24-.9.23-1.25-.02-.38-.27-.6-.64-.64-1.1-.02-.19-.02-.38-.02-.57,0-2.27,0-4.54,0-6.8,0-.19,0-.38.02-.57.06-.54.34-.94.84-1.17.3-.14.61-.14.91.02.49.25.79.63.79,1.19.01,1.32,0,2.65,0,3.97,0,0,0,0,0,0Z"/>
      <path class="cls-10" d="M129.62,103c-.03-.92.28-1.57.96-2.04.26-.18.55-.29.87-.34.06,0,.13-.01.19-.02,1.17-.11,2.02.56,2.35,1.51.15.43.18.85.04,1.29-.32,1.01-1.04,1.53-2.06,1.7-.06.01-.13.02-.19.01-.86-.12-1.55-.5-1.96-1.29-.15-.29-.17-.6-.19-.81Z"/>
      <path class="cls-19" d="M100.17,122.55c-.04,1.1-.89,2.12-2.2,2.18-1.27.05-2.38-.97-2.33-2.42.04-.88.91-2.08,2.29-2.07,1.38.01,2.33,1.29,2.24,2.31Z"/>
      <path class="cls-19" d="M163.98,122.5c.03-.75.25-1.32.77-1.75.3-.25.63-.42,1.02-.46.25-.02.5-.04.75-.02.84.07,1.53.66,1.8,1.45.22.64.14,1.24-.14,1.83-.2.41-.52.72-.92.91-.28.13-.59.2-.89.29-.06.02-.13.02-.19.02-.51-.06-.98-.22-1.39-.54-.6-.47-.8-1.1-.81-1.73Z"/>
      <path class="cls-19" d="M117.19,112.69c-.06,1.4-1.19,2.28-2.35,2.22-1.39-.08-2.21-1.17-2.18-2.38.02-.93.92-2.1,2.25-2.11,1.43,0,2.35,1.3,2.27,2.28Z"/>
      <path class="cls-19" d="M146.71,112.66c-.06-1.05.92-2.27,2.3-2.25,1.34.02,2.21,1.21,2.23,2.14.02,1.22-.85,2.31-2.22,2.35-1.2.04-2.28-.87-2.31-2.25Z"/>
      <path class="cls-11" d="M131.92,163.06c1.38-.06,2.29,1.22,2.3,2.23,0,1.16-.99,2.28-2.25,2.3-1.19.02-2.26-1.03-2.29-2.25-.03-1.15,1.02-2.32,2.24-2.27Z"/>
      <path class="cls-15" d="M166.22,149.19c-.32,0-.45,0-.57,0-.53-.02-.96-.25-1.31-.64-.77-.84-.81-2.05-.09-2.92.42-.51.96-.79,1.63-.81.89-.03,1.57.32,2.06,1.07.66,1.04.3,2.44-.82,3.08-.16.09-.35.14-.53.18-.18.04-.37.03-.36.03Z"/>
      <path class="cls-11" d="M100.17,149.8c.06,1.08-.9,2.3-2.2,2.33-1.31.03-2.32-1.12-2.33-2.19-.02-1.29,1.05-2.3,2.2-2.34,1.21-.04,2.3,1,2.33,2.2Z"/>
    </g>
  </g>
</svg>